<mxfile host="app.diagrams.net" modified="2024-06-25T12:17:59.210Z" agent="Mozilla/5.0 (X11; Ubuntu; Linux x86_64; rv:127.0) Gecko/20100101 Firefox/127.0" version="24.2.8" etag="SeQ_VyE8_OPrGZVCBl3o" type="github">
  <diagram name="Page-1" id="7-lZIRhn2605zxQ_fzAO">
    <mxGraphModel>
      <root>
        <mxCell id="0" />
        <mxCell id="1" parent="0" />
      </root>
    </mxGraphModel>
  </diagram>
</mxfile>
